<mxfile host="65bd71144e">
    <diagram id="iKpqdBi6vhiHX9eOmPMT" name="Page-1">
        <mxGraphModel dx="2017" dy="1296" grid="1" gridSize="6" guides="1" tooltips="1" connect="1" arrows="1" fold="1" page="1" pageScale="1" pageWidth="2336" pageHeight="1654" math="0" shadow="0">
            <root>
                <mxCell id="0"/>
                <mxCell id="1" parent="0"/>
                <mxCell id="51" style="edgeStyle=none;html=1;exitX=0.5;exitY=1;exitDx=0;exitDy=0;exitPerimeter=0;entryX=0.5;entryY=0;entryDx=0;entryDy=0;entryPerimeter=0;fontFamily=Garamond;fontSize=19;fontColor=#000000;rounded=1;startArrow=none;" parent="1" source="3" target="9" edge="1">
                    <mxGeometry relative="1" as="geometry"/>
                </mxCell>
                <mxCell id="55" style="edgeStyle=none;html=1;exitX=1;exitY=0.5;exitDx=0;exitDy=0;exitPerimeter=0;fontFamily=Garamond;fontSize=22;fontColor=#000000;endArrow=classic;endFill=1;rounded=1;" parent="1" source="2" edge="1">
                    <mxGeometry relative="1" as="geometry">
                        <mxPoint x="1086" y="421" as="targetPoint"/>
                    </mxGeometry>
                </mxCell>
                <mxCell id="2" value="" style="points=[[0.015,0.015,0],[0.985,0.015,0],[0.985,0.985,0],[0.015,0.985,0],[0.25,0,0],[0.5,0,0],[0.75,0,0],[1,0.25,0],[1,0.5,0],[1,0.75,0],[0.75,1,0],[0.5,1,0],[0.25,1,0],[0,0.75,0],[0,0.5,0],[0,0.25,0]];verticalLabelPosition=bottom;html=1;verticalAlign=top;aspect=fixed;align=center;pointerEvents=1;shape=mxgraph.cisco19.rect;prIcon=firewall;fillColor=#FAFAFA;strokeColor=#005073;rounded=1;" parent="1" vertex="1">
                    <mxGeometry x="733" y="396" width="64" height="50" as="geometry"/>
                </mxCell>
                <mxCell id="47" value="" style="html=1;rounded=1;" parent="1" source="4" edge="1">
                    <mxGeometry relative="1" as="geometry">
                        <mxPoint x="1047" y="864" as="targetPoint"/>
                    </mxGeometry>
                </mxCell>
                <mxCell id="4" value="" style="points=[[0.015,0.015,0],[0.985,0.015,0],[0.985,0.985,0],[0.015,0.985,0],[0.25,0,0],[0.5,0,0],[0.75,0,0],[1,0.25,0],[1,0.5,0],[1,0.75,0],[0.75,1,0],[0.5,1,0],[0.25,1,0],[0,0.75,0],[0,0.5,0],[0,0.25,0]];verticalLabelPosition=bottom;html=1;verticalAlign=top;aspect=fixed;align=center;pointerEvents=1;shape=mxgraph.cisco19.rect;prIcon=workgroup_switch;fillColor=#FAFAFA;strokeColor=#6696AB;rounded=1;" parent="1" vertex="1">
                    <mxGeometry x="1017" y="738" width="60" height="60" as="geometry"/>
                </mxCell>
                <mxCell id="8" value="" style="shape=mxgraph.cisco.misc.access_point;html=1;pointerEvents=1;dashed=0;fillColor=#036897;strokeColor=#ffffff;strokeWidth=2;verticalLabelPosition=bottom;verticalAlign=top;align=center;outlineConnect=0;rounded=1;" parent="1" vertex="1">
                    <mxGeometry x="364.6" y="674.85" width="75" height="34" as="geometry"/>
                </mxCell>
                <mxCell id="29" style="edgeStyle=none;html=1;exitX=0.015;exitY=0.985;exitDx=0;exitDy=0;exitPerimeter=0;rounded=1;" parent="1" source="9" target="23" edge="1">
                    <mxGeometry relative="1" as="geometry"/>
                </mxCell>
                <mxCell id="30" style="edgeStyle=none;html=1;exitX=0.985;exitY=0.985;exitDx=0;exitDy=0;exitPerimeter=0;entryX=0.015;entryY=0.015;entryDx=0;entryDy=0;entryPerimeter=0;rounded=1;" parent="1" source="9" target="4" edge="1">
                    <mxGeometry relative="1" as="geometry"/>
                </mxCell>
                <mxCell id="9" value="" style="points=[[0.015,0.015,0],[0.985,0.015,0],[0.985,0.985,0],[0.015,0.985,0],[0.25,0,0],[0.5,0,0],[0.75,0,0],[1,0.25,0],[1,0.5,0],[1,0.75,0],[0.75,1,0],[0.5,1,0],[0.25,1,0],[0,0.75,0],[0,0.5,0],[0,0.25,0]];verticalLabelPosition=bottom;html=1;verticalAlign=top;aspect=fixed;align=center;pointerEvents=1;shape=mxgraph.cisco19.rect;prIcon=workgroup_switch;fillColor=#FAFAFA;strokeColor=#6696AB;rounded=1;" parent="1" vertex="1">
                    <mxGeometry x="735" y="552" width="60" height="60" as="geometry"/>
                </mxCell>
                <mxCell id="11" value="" style="pointerEvents=1;shadow=0;dashed=0;html=1;strokeColor=none;fillColor=#4495D1;labelPosition=center;verticalLabelPosition=bottom;verticalAlign=top;align=center;outlineConnect=0;shape=mxgraph.veeam.laptop;rounded=1;" parent="1" vertex="1">
                    <mxGeometry x="228" y="664.85" width="58.4" height="44" as="geometry"/>
                </mxCell>
                <mxCell id="12" value="" style="html=1;verticalLabelPosition=bottom;align=center;labelBackgroundColor=#ffffff;verticalAlign=top;strokeWidth=2;strokeColor=#0080F0;shadow=0;dashed=0;shape=mxgraph.ios7.icons.smartphone;rounded=1;" parent="1" vertex="1">
                    <mxGeometry x="384.8" y="564" width="18" height="30" as="geometry"/>
                </mxCell>
                <mxCell id="33" style="edgeStyle=none;html=1;exitX=1;exitY=0.5;exitDx=0;exitDy=0;exitPerimeter=0;rounded=1;" parent="1" source="14" target="15" edge="1">
                    <mxGeometry relative="1" as="geometry"/>
                </mxCell>
                <mxCell id="14" value="" style="fontColor=#0066CC;verticalAlign=top;verticalLabelPosition=bottom;labelPosition=center;align=center;html=1;outlineConnect=0;fillColor=#CCCCCC;strokeColor=#6881B3;gradientColor=none;gradientDirection=north;strokeWidth=2;shape=mxgraph.networks.phone_2;rounded=1;" parent="1" vertex="1">
                    <mxGeometry x="241.8" y="825" width="40" height="36" as="geometry"/>
                </mxCell>
                <mxCell id="15" value="" style="verticalLabelPosition=bottom;aspect=fixed;html=1;verticalAlign=top;strokeColor=none;align=center;outlineConnect=0;shape=mxgraph.citrix.desktop;rounded=1;" parent="1" vertex="1">
                    <mxGeometry x="144" y="815" width="50.86" height="56" as="geometry"/>
                </mxCell>
                <mxCell id="16" value="" style="pointerEvents=1;shadow=0;dashed=0;html=1;strokeColor=none;fillColor=#505050;labelPosition=center;verticalLabelPosition=bottom;verticalAlign=top;outlineConnect=0;align=center;shape=mxgraph.office.servers.database_server_green;rounded=1;" parent="1" vertex="1">
                    <mxGeometry x="1070.25" y="878.7" width="23" height="30" as="geometry"/>
                </mxCell>
                <mxCell id="17" value="" style="pointerEvents=1;shadow=0;dashed=0;html=1;strokeColor=none;fillColor=#505050;labelPosition=center;verticalLabelPosition=bottom;verticalAlign=top;outlineConnect=0;align=center;shape=mxgraph.office.servers.exchange_server;rounded=1;" parent="1" vertex="1">
                    <mxGeometry x="1040.25" y="878.7" width="30" height="30" as="geometry"/>
                </mxCell>
                <mxCell id="19" value="" style="aspect=fixed;html=1;points=[];align=center;image;fontSize=12;image=img/lib/mscae/SQL_Servers.svg;rounded=1;" parent="1" vertex="1">
                    <mxGeometry x="1097.25" y="878.7" width="30" height="30" as="geometry"/>
                </mxCell>
                <mxCell id="27" value="" style="edgeStyle=none;html=1;startArrow=none;rounded=1;" parent="1" source="72" target="2" edge="1">
                    <mxGeometry relative="1" as="geometry"/>
                </mxCell>
                <mxCell id="20" value="" style="aspect=fixed;perimeter=ellipsePerimeter;html=1;align=center;shadow=0;dashed=0;spacingTop=3;image;image=img/lib/active_directory/internet_cloud.svg;rounded=1;" parent="1" vertex="1">
                    <mxGeometry x="690" y="50" width="150" height="94.5" as="geometry"/>
                </mxCell>
                <mxCell id="21" value="" style="html=1;strokeWidth=1;shadow=0;dashed=0;shape=mxgraph.ios7.misc.vpn;fillColor=#007AFF;strokeColor=none;buttonText=;strokeColor2=#222222;fontColor=#222222;fontSize=8;verticalLabelPosition=bottom;verticalAlign=top;align=center;direction=east;rounded=1;" parent="1" vertex="1">
                    <mxGeometry x="439.6" y="222" width="80" height="30" as="geometry"/>
                </mxCell>
                <mxCell id="22" value="" style="pointerEvents=1;shadow=0;dashed=0;html=1;strokeColor=none;fillColor=#4495D1;labelPosition=center;verticalLabelPosition=bottom;verticalAlign=top;align=center;outlineConnect=0;shape=mxgraph.veeam.laptop;rounded=1;" parent="1" vertex="1">
                    <mxGeometry x="228.00000000000003" y="264" width="58.4" height="46" as="geometry"/>
                </mxCell>
                <mxCell id="66" style="edgeStyle=none;html=1;exitX=0.015;exitY=0.015;exitDx=0;exitDy=0;exitPerimeter=0;entryX=0.92;entryY=0.8;entryDx=0;entryDy=0;entryPerimeter=0;fontFamily=Garamond;fontSize=22;fontColor=#f1e9e9;endArrow=classic;endFill=1;rounded=1;" parent="1" source="23" target="8" edge="1">
                    <mxGeometry relative="1" as="geometry"/>
                </mxCell>
                <mxCell id="67" style="edgeStyle=none;html=1;exitX=0;exitY=0.5;exitDx=0;exitDy=0;exitPerimeter=0;fontFamily=Garamond;fontSize=22;fontColor=#f1e9e9;endArrow=classic;endFill=1;rounded=1;" parent="1" source="23" edge="1">
                    <mxGeometry relative="1" as="geometry">
                        <mxPoint x="288" y="843.4615384615386" as="targetPoint"/>
                    </mxGeometry>
                </mxCell>
                <mxCell id="23" value="" style="points=[[0.015,0.015,0],[0.985,0.015,0],[0.985,0.985,0],[0.015,0.985,0],[0.25,0,0],[0.5,0,0],[0.75,0,0],[1,0.25,0],[1,0.5,0],[1,0.75,0],[0.75,1,0],[0.5,1,0],[0.25,1,0],[0,0.75,0],[0,0.5,0],[0,0.25,0]];verticalLabelPosition=bottom;html=1;verticalAlign=top;aspect=fixed;align=center;pointerEvents=1;shape=mxgraph.cisco19.rect;prIcon=workgroup_switch;fillColor=#FAFAFA;strokeColor=#6696AB;rounded=1;" parent="1" vertex="1">
                    <mxGeometry x="468" y="813" width="60" height="60" as="geometry"/>
                </mxCell>
                <mxCell id="25" value="" style="pointerEvents=1;shadow=0;dashed=0;html=1;strokeColor=none;fillColor=#4495D1;labelPosition=center;verticalLabelPosition=bottom;verticalAlign=top;align=center;outlineConnect=0;shape=mxgraph.veeam.hyper_v_vmware_host;rounded=1;" parent="1" vertex="1">
                    <mxGeometry x="1013.5" y="922.7" width="107" height="104" as="geometry"/>
                </mxCell>
                <mxCell id="26" value="" style="pointerEvents=1;shadow=0;dashed=0;html=1;strokeColor=none;fillColor=#505050;labelPosition=center;verticalLabelPosition=bottom;verticalAlign=top;outlineConnect=0;align=center;shape=mxgraph.office.servers.server_farm;fillColor=#DA4026;rounded=1;" parent="1" vertex="1">
                    <mxGeometry x="1010.25" y="876.7" width="15" height="32" as="geometry"/>
                </mxCell>
                <mxCell id="37" value="Core Switch" style="text;html=1;align=center;verticalAlign=middle;resizable=0;points=[];autosize=1;strokeColor=none;fillColor=none;fontStyle=1;strokeWidth=17;fontFamily=Garamond;fontSize=26;rounded=1;" parent="1" vertex="1">
                    <mxGeometry x="792" y="558" width="156" height="48" as="geometry"/>
                </mxCell>
                <mxCell id="38" value="Internet&amp;nbsp;" style="text;html=1;align=center;verticalAlign=middle;resizable=0;points=[];autosize=1;strokeColor=none;fillColor=none;fontSize=19;fontColor=#000000;fontStyle=1;rounded=1;" parent="1" vertex="1">
                    <mxGeometry x="717" y="79.25" width="96" height="36" as="geometry"/>
                </mxCell>
                <mxCell id="39" value="" style="edgeStyle=none;html=1;endArrow=none;rounded=1;" parent="1" source="20" target="40" edge="1">
                    <mxGeometry relative="1" as="geometry">
                        <mxPoint x="765" y="144.5" as="sourcePoint"/>
                        <mxPoint x="765" y="220" as="targetPoint"/>
                    </mxGeometry>
                </mxCell>
                <mxCell id="40" value="" style="shape=mxgraph.cisco.routers.10700;html=1;pointerEvents=1;dashed=0;fillColor=#036897;strokeColor=#ffffff;strokeWidth=2;verticalLabelPosition=bottom;verticalAlign=top;align=center;outlineConnect=0;rounded=1;" parent="1" vertex="1">
                    <mxGeometry x="726" y="240" width="78" height="53" as="geometry"/>
                </mxCell>
                <mxCell id="45" value="" style="html=1;verticalLabelPosition=bottom;align=center;labelBackgroundColor=#ffffff;verticalAlign=top;strokeWidth=2;strokeColor=#0080F0;shadow=0;dashed=0;shape=mxgraph.ios7.icons.wifi;pointerEvents=1;direction=north;rounded=1;" parent="1" vertex="1">
                    <mxGeometry x="303.7999999999999" y="657" width="41" height="69.7" as="geometry"/>
                </mxCell>
                <mxCell id="46" value="" style="html=1;verticalLabelPosition=bottom;align=center;labelBackgroundColor=#ffffff;verticalAlign=top;strokeWidth=2;strokeColor=#0080F0;shadow=0;dashed=0;shape=mxgraph.ios7.icons.wifi;pointerEvents=1;direction=east;rounded=1;" parent="1" vertex="1">
                    <mxGeometry x="369.89999999999986" y="615.9999999999999" width="69.7" height="41" as="geometry"/>
                </mxCell>
                <mxCell id="48" value="Remote Client" style="text;html=1;align=center;verticalAlign=middle;resizable=0;points=[];autosize=1;strokeColor=none;fillColor=none;fontStyle=1;strokeWidth=17;fontFamily=Garamond;fontSize=22;rounded=1;" parent="1" vertex="1">
                    <mxGeometry x="183.79999999999995" y="318" width="156" height="36" as="geometry"/>
                </mxCell>
                <mxCell id="50" style="edgeStyle=none;html=1;exitX=0.5;exitY=0;exitDx=0;exitDy=0;exitPerimeter=0;entryX=0.75;entryY=0;entryDx=0;entryDy=0;entryPerimeter=0;fontFamily=Garamond;fontSize=19;fontColor=#000000;rounded=1;" parent="1" source="9" target="9" edge="1">
                    <mxGeometry relative="1" as="geometry"/>
                </mxCell>
                <mxCell id="52" value="Access Switch" style="text;html=1;align=center;verticalAlign=middle;resizable=0;points=[];autosize=1;strokeColor=none;fillColor=none;fontStyle=1;strokeWidth=17;fontFamily=Garamond;fontSize=26;rounded=1;" parent="1" vertex="1">
                    <mxGeometry x="1070.25" y="744" width="180" height="48" as="geometry"/>
                </mxCell>
                <mxCell id="53" value="Access Switch" style="text;html=1;align=center;verticalAlign=middle;resizable=0;points=[];autosize=1;strokeColor=none;fillColor=none;fontStyle=1;strokeWidth=17;fontFamily=Garamond;fontSize=26;rounded=1;" parent="1" vertex="1">
                    <mxGeometry x="528" y="819" width="180" height="48" as="geometry"/>
                </mxCell>
                <mxCell id="56" value="" style="rounded=1;whiteSpace=wrap;html=1;strokeWidth=17;fontFamily=Garamond;fontSize=22;fillColor=none;" parent="1" vertex="1">
                    <mxGeometry x="1104" y="353" width="216" height="173" as="geometry"/>
                </mxCell>
                <mxCell id="59" value="" style="outlineConnect=0;dashed=0;verticalLabelPosition=bottom;verticalAlign=top;align=center;html=1;shape=mxgraph.aws3.traditional_server;fillColor=#7D7C7C;gradientColor=none;strokeWidth=17;fontFamily=Garamond;fontSize=22;fontColor=#000000;rounded=1;" parent="1" vertex="1">
                    <mxGeometry x="1164" y="389" width="46.5" height="63" as="geometry"/>
                </mxCell>
                <mxCell id="61" value="Web Server" style="text;html=1;align=center;verticalAlign=middle;resizable=0;points=[];autosize=1;strokeColor=none;fillColor=none;fontSize=22;fontFamily=Garamond;fontColor=#f1e9e9;rounded=1;" parent="1" vertex="1">
                    <mxGeometry x="1127.25" y="466" width="120" height="36" as="geometry"/>
                </mxCell>
                <mxCell id="62" value="Publicly accessible" style="text;html=1;align=center;verticalAlign=middle;resizable=0;points=[];autosize=1;strokeColor=none;fillColor=none;fontSize=22;fontFamily=Garamond;fontColor=#f1e9e9;fontStyle=1;rounded=1;" parent="1" vertex="1">
                    <mxGeometry x="1115.25" y="298" width="204" height="36" as="geometry"/>
                </mxCell>
                <mxCell id="63" value="Server&amp;nbsp;" style="text;html=1;align=center;verticalAlign=middle;resizable=0;points=[];autosize=1;strokeColor=none;fillColor=none;fontSize=25;fontFamily=Garamond;fontColor=#f1e9e9;rounded=1;" parent="1" vertex="1">
                    <mxGeometry x="1013.5" y="1026.7" width="96" height="48" as="geometry"/>
                </mxCell>
                <mxCell id="68" value="Access Points" style="text;html=1;align=center;verticalAlign=middle;resizable=0;points=[];autosize=1;strokeColor=none;fillColor=none;fontSize=22;fontFamily=Garamond;fontColor=#f1e9e9;fontStyle=1;rounded=1;" parent="1" vertex="1">
                    <mxGeometry x="444" y="664.85" width="156" height="36" as="geometry"/>
                </mxCell>
                <mxCell id="69" value="DeskPhones" style="text;html=1;align=center;verticalAlign=middle;resizable=0;points=[];autosize=1;strokeColor=none;fillColor=none;fontSize=22;fontFamily=Garamond;fontColor=#f1e9e9;fontStyle=1;rounded=1;" parent="1" vertex="1">
                    <mxGeometry x="200" y="867" width="144" height="36" as="geometry"/>
                </mxCell>
                <mxCell id="70" value="Desktops" style="text;html=1;align=center;verticalAlign=middle;resizable=0;points=[];autosize=1;strokeColor=none;fillColor=none;fontSize=22;fontFamily=Garamond;fontColor=#f1e9e9;fontStyle=1;rounded=1;" parent="1" vertex="1">
                    <mxGeometry x="57.8" y="861" width="120" height="36" as="geometry"/>
                </mxCell>
                <mxCell id="71" value="VMware" style="text;html=1;align=center;verticalAlign=middle;resizable=0;points=[];autosize=1;strokeColor=none;fillColor=none;fontSize=25;fontFamily=Garamond;fontColor=#f1e9e9;fontStyle=1;rounded=1;" parent="1" vertex="1">
                    <mxGeometry x="1108" y="936" width="120" height="48" as="geometry"/>
                </mxCell>
                <mxCell id="73" value="" style="endArrow=none;dashed=1;html=1;startArrow=none;" edge="1" parent="1" source="74" target="20">
                    <mxGeometry width="50" height="50" relative="1" as="geometry">
                        <mxPoint x="276" y="278" as="sourcePoint"/>
                        <mxPoint x="326" y="228" as="targetPoint"/>
                    </mxGeometry>
                </mxCell>
                <mxCell id="75" value="" style="endArrow=none;dashed=1;html=1;" edge="1" parent="1" target="74">
                    <mxGeometry width="50" height="50" relative="1" as="geometry">
                        <mxPoint x="276" y="278" as="sourcePoint"/>
                        <mxPoint x="700.2433584679411" y="121.08680056394792" as="targetPoint"/>
                    </mxGeometry>
                </mxCell>
                <mxCell id="74" value="IPSEC Tunnel" style="text;html=1;align=center;verticalAlign=middle;resizable=0;points=[];autosize=1;strokeColor=none;fillColor=none;fontStyle=1;rotation=0;fontSize=15;" vertex="1" parent="1">
                    <mxGeometry x="424.6" y="189" width="120" height="36" as="geometry"/>
                </mxCell>
                <mxCell id="76" value="" style="edgeStyle=none;html=1;startArrow=none;rounded=1;endArrow=none;" edge="1" parent="1" source="40" target="72">
                    <mxGeometry relative="1" as="geometry">
                        <mxPoint x="765" y="293" as="sourcePoint"/>
                        <mxPoint x="765" y="396" as="targetPoint"/>
                    </mxGeometry>
                </mxCell>
                <mxCell id="72" value="Router" style="text;html=1;align=center;verticalAlign=middle;resizable=0;points=[];autosize=1;strokeColor=none;fillColor=none;fontSize=25;fontFamily=Garamond;fontColor=#f1e9e9;rounded=1;" parent="1" vertex="1">
                    <mxGeometry x="717" y="286" width="96" height="48" as="geometry"/>
                </mxCell>
                <mxCell id="77" value="" style="edgeStyle=none;html=1;exitX=0.5;exitY=1;exitDx=0;exitDy=0;exitPerimeter=0;entryX=0.5;entryY=0;entryDx=0;entryDy=0;entryPerimeter=0;fontFamily=Garamond;fontSize=19;fontColor=#000000;rounded=1;endArrow=none;" edge="1" parent="1" source="2" target="3">
                    <mxGeometry relative="1" as="geometry">
                        <mxPoint x="765" y="446" as="sourcePoint"/>
                        <mxPoint x="765" y="552" as="targetPoint"/>
                    </mxGeometry>
                </mxCell>
                <mxCell id="3" value="FIrewall" style="text;html=1;align=center;verticalAlign=middle;resizable=0;points=[];autosize=1;strokeColor=none;fillColor=none;fontSize=22;rounded=1;" parent="1" vertex="1">
                    <mxGeometry x="711" y="456" width="108" height="36" as="geometry"/>
                </mxCell>
                <mxCell id="78" value="Laptops" style="text;html=1;align=center;verticalAlign=middle;resizable=0;points=[];autosize=1;strokeColor=none;fillColor=none;fontSize=22;" vertex="1" parent="1">
                    <mxGeometry x="206.20000000000002" y="700.85" width="102" height="42" as="geometry"/>
                </mxCell>
                <mxCell id="79" value="Mobiles" style="text;html=1;align=center;verticalAlign=middle;resizable=0;points=[];autosize=1;strokeColor=none;fillColor=none;fontSize=22;" vertex="1" parent="1">
                    <mxGeometry x="342" y="528" width="102" height="42" as="geometry"/>
                </mxCell>
            </root>
        </mxGraphModel>
    </diagram>
</mxfile>